REM DIRINDEX 1\4,1\2\5,1\2\6,1\2\7,1\3\8,1\3\9,1\3\10,1\3\11
REM DIRNAME folder01,folder02,folder03,folder04,folder05,folder06,folder07,folder08,folder09,folder10,folder11
TITLE ""
FILE "t_k_067-076.mp3" MP3
  TRACK 01 AUDIO
    TITLE "5:cjc108_0200"
    INDEX 01 00:00:00
  TRACK 02 AUDIO
    TITLE "0:"
    INDEX 01 00:00:70
  TRACK 03 AUDIO
    TITLE "6:cjc108_0201"
    INDEX 01 00:01:11
  TRACK 04 AUDIO
    TITLE "0:"
    INDEX 01 00:02:28
  TRACK 05 AUDIO
    TITLE "7:cjc108_0202"
    INDEX 01 00:02:40
  TRACK 06 AUDIO
    TITLE "0:"
    INDEX 01 00:07:47
  TRACK 07 AUDIO
    TITLE "5:cjc108_0203"
    INDEX 01 00:08:23
  TRACK 08 AUDIO
    TITLE "0:"
    INDEX 01 00:09:34
  TRACK 09 AUDIO
    TITLE "6:cjc108_0204"
    INDEX 01 00:09:42
  TRACK 10 AUDIO
    TITLE "0:"
    INDEX 01 00:12:26
  TRACK 11 AUDIO
    TITLE "7:cjc108_0205"
    INDEX 01 00:12:40
  TRACK 12 AUDIO
    TITLE "0:"
    INDEX 01 00:16:55
  TRACK 13 AUDIO
    TITLE "5:cjc108_0206"
    INDEX 01 00:17:39
  TRACK 14 AUDIO
    TITLE "0:"
    INDEX 01 00:18:58
  TRACK 15 AUDIO
    TITLE "6:cjc108_0207"
    INDEX 01 00:18:60
  TRACK 16 AUDIO
    TITLE "0:"
    INDEX 01 00:19:67
  TRACK 17 AUDIO
    TITLE "7:cjc108_0208"
    INDEX 01 00:20:06
  TRACK 18 AUDIO
    TITLE "0:"
    INDEX 01 00:26:05
  TRACK 19 AUDIO
    TITLE "5:cjc108_0209"
    INDEX 01 00:26:66
  TRACK 20 AUDIO
    TITLE "0:"
    INDEX 01 00:28:10
  TRACK 21 AUDIO
    TITLE "6:cjc108_0210"
    INDEX 01 00:28:39
  TRACK 22 AUDIO
    TITLE "0:"
    INDEX 01 00:29:52
  TRACK 23 AUDIO
    TITLE "7:cjc108_0211"
    INDEX 01 00:29:68
  TRACK 24 AUDIO
    TITLE "0:"
    INDEX 01 00:36:29
  TRACK 25 AUDIO
    TITLE "5:cjc108_0212"
    INDEX 01 00:37:08
  TRACK 26 AUDIO
    TITLE "0:"
    INDEX 01 00:38:22
  TRACK 27 AUDIO
    TITLE "6:cjc108_0213"
    INDEX 01 00:38:59
  TRACK 28 AUDIO
    TITLE "0:"
    INDEX 01 00:41:16
  TRACK 29 AUDIO
    TITLE "7:cjc108_0214"
    INDEX 01 00:41:22
  TRACK 30 AUDIO
    TITLE "0:"
    INDEX 01 00:46:49
  TRACK 31 AUDIO
    TITLE "5:cjc108_0215"
    INDEX 01 00:47:28
  TRACK 32 AUDIO
    TITLE "0:"
    INDEX 01 00:48:53
  TRACK 33 AUDIO
    TITLE "6:cjc108_0216"
    INDEX 01 00:48:57
  TRACK 34 AUDIO
    TITLE "0:"
    INDEX 01 00:51:07
  TRACK 35 AUDIO
    TITLE "7:cjc108_0217"
    INDEX 01 00:51:16
  TRACK 36 AUDIO
    TITLE "0:"
    INDEX 01 00:56:61
  TRACK 37 AUDIO
    TITLE "5:cjc108_0218"
    INDEX 01 00:57:46
  TRACK 38 AUDIO
    TITLE "0:"
    INDEX 01 00:58:40
  TRACK 39 AUDIO
    TITLE "6:cjc108_0219"
    INDEX 01 00:58:56
  TRACK 40 AUDIO
    TITLE "0:"
    INDEX 01 01:01:13
  TRACK 41 AUDIO
    TITLE "7:cjc108_0220"
    INDEX 01 01:01:17
  TRACK 42 AUDIO
    TITLE "0:"
    INDEX 01 01:05:46
  TRACK 43 AUDIO
    TITLE "5:cjc108_0221"
    INDEX 01 01:06:36
  TRACK 44 AUDIO
    TITLE "0:"
    INDEX 01 01:07:63
  TRACK 45 AUDIO
    TITLE "6:cjc108_0222"
    INDEX 01 01:08:09
  TRACK 46 AUDIO
    TITLE "0:"
    INDEX 01 01:11:43
  TRACK 47 AUDIO
    TITLE "7:cjc108_0223"
    INDEX 01 01:11:58
  TRACK 48 AUDIO
    TITLE "0:"
    INDEX 01 01:17:28
  TRACK 49 AUDIO
    TITLE "5:cjc108_0224"
    INDEX 01 01:18:06
  TRACK 50 AUDIO
    TITLE "0:"
    INDEX 01 01:19:07
  TRACK 51 AUDIO
    TITLE "6:cjc108_0225"
    INDEX 01 01:19:17
  TRACK 52 AUDIO
    TITLE "0:"
    INDEX 01 01:21:14
  TRACK 53 AUDIO
    TITLE "7:cjc108_0226"
    INDEX 01 01:21:25
  TRACK 54 AUDIO
    TITLE "0:"
    INDEX 01 01:25:31
  TRACK 55 AUDIO
    TITLE "5:cjc108_0227"
    INDEX 01 01:26:17
  TRACK 56 AUDIO
    TITLE "0:"
    INDEX 01 01:27:50
  TRACK 57 AUDIO
    TITLE "6:cjc108_0228"
    INDEX 01 01:27:61
  TRACK 58 AUDIO
    TITLE "0:"
    INDEX 01 01:29:13
  TRACK 59 AUDIO
    TITLE "7:cjc108_0229"
    INDEX 01 01:29:37
  TRACK 60 AUDIO
    TITLE "0:"
    INDEX 01 01:36:64
